<mxfile host="app.diagrams.net" modified="2023-01-03T02:43:07.069Z" agent="5.0 (Macintosh; Intel Mac OS X 10_15_7) AppleWebKit/537.36 (KHTML, like Gecko) Chrome/107.0.0.0 Safari/537.36" version="20.7.4" etag="w918RXMs3bPy9VwH3QeY" type="github">
  <diagram id="dAJQC7efOA1lrwZXZdDK" name="第 1 页">
    <mxGraphModel dx="1480" dy="707" grid="1" gridSize="10" guides="1" tooltips="1" connect="1" arrows="1" fold="1" page="1" pageScale="1" pageWidth="827" pageHeight="1169" math="0" shadow="0">
      <root>
        <mxCell id="0" />
        <mxCell id="1" parent="0" />
      </root>
    </mxGraphModel>
  </diagram>
</mxfile>
